{"title":"I Hate Love Storys (2010) 1CD Cam Rip Xvid MP3 [Tikris]","uid":5668365,"size":731029274,"categoryP":"video","categoryS":"movies","magnet":"?xt=urn:btih:358ee031d7499293a0b7f8a0a78b886433ebc3b9&amp;dn=I+Hate+Love+Storys+%282010%29+1CD+Cam+Rip+Xvid+MP3+%5BTikris%5D&amp;tr=udp%3A%2F%2Ftracker.openbittorrent.com%3A80&amp;tr=udp%3A%2F%2Fopen.demonii.com%3A1337&amp;tr=udp%3A%2F%2Ftracker.coppersurfer.tk%3A6969&amp;tr=udp%3A%2F%2Fexodus.desync.com%3A6969","seeders":0,"leechers":1,"uploader":"luvwithromio","files":-1,"time":1278235000,"description":"Format                           : AVI\nFormat/Info                      : Audio Video Interleave\nFile size                        : 697 MiB\nDuration                         : 1h 51mn\nOverall bit rate                 : 876 Kbps\n\nVideo\nID                               : 0\nFormat                           : MPEG-4 Visual\nFormat profile                   : Advanced Simple@L5\nFormat settings, BVOP            : Yes\nFormat settings, QPel            : No\nFormat settings, GMC             : No warppoints\nFormat settings, Matrix          : Default (H.263)\nCodec ID                         : XVID\nCodec ID/Hint                    : XviD\nDuration                         : 1h 51mn\nBit rate                         : 767 Kbps\nWidth                            : 608 pixels\nHeight                           : 256 pixels\nDisplay aspect ratio             : 2.35:1\nFrame rate                       : 25.000 fps\nResolution                       : 8 bits\nColorimetry                      : 4:2:0\nScan type                        : Progressive\nBits/(Pixel*Frame)               : 0.197\nStream size                      : 611 MiB (88%)\nWriting library                  : XviD 1.1.2 (UTC 2006-11-01)\n\nAudio\nID                               : 1\nFormat                           : MPEG Audio\nFormat version                   : Version 1\nFormat profile                   : Layer 3\nCodec ID                         : 55\nCodec ID/Hint                    : MP3\nDuration                         : 1h 51mn\nBit rate mode                    : Constant\nBit rate                         : 96.0 Kbps\nChannel(s)                       : 2 channels\nSampling rate                    : 44.1 KHz\nStream size                      : 76.4 MiB (11%)\nAlignment                        : Split accross interleaves\nInterleave, duration             : 26 ms (0.65 video frame)","torrent":{"xt":"urn:btih:358ee031d7499293a0b7f8a0a78b886433ebc3b9","amp;dn":"I+Hate+Love+Storys+%282010%29+1CD+Cam+Rip+Xvid+MP3+%5BTikris%5D","amp;tr":["udp%3A%2F%2Ftracker.openbittorrent.com%3A80","udp%3A%2F%2Fopen.demonii.com%3A1337","udp%3A%2F%2Ftracker.coppersurfer.tk%3A6969","udp%3A%2F%2Fexodus.desync.com%3A6969"],"infoHash":"358ee031d7499293a0b7f8a0a78b886433ebc3b9","infoHashBuffer":{"type":"Buffer","data":[53,142,224,49,215,73,146,147,160,183,248,160,167,139,136,100,51,235,195,185]},"announce":[],"urlList":[]}}